<svg width="73" height="73" viewBox="0 0 73 73" fill="none" xmlns="http://www.w3.org/2000/svg">
<path d="M19.934 64.0162C19.91 63.6602 19.82 63.324 19.664 63.012C16.77 57.219 13.879 51.422 10.969 45.637C10.352 44.41 9.23398 44.0592 7.98798 44.6522C7.27698 44.9922 6.594 45.387 5.875 45.699C5.434 45.895 5.43003 46.1021 5.62903 46.4881C6.34003 47.8631 7.02303 49.2542 7.71503 50.6412C10.387 55.9802 13.059 61.312 15.711 66.66C15.949 67.133 16.148 67.2659 16.633 66.9839C17.336 66.5779 18.082 66.2541 18.797 65.8751C19.535 65.4801 19.883 64.8322 19.934 64.0162ZM36.238 59.637C40.246 59.637 44.258 59.6172 48.266 59.6412C52.086 59.6562 55.117 58.1449 57.395 55.0779C59.508 52.2299 61.645 49.402 63.77 46.566C64.871 45.102 65.988 43.652 67.059 42.168C68.031 40.824 67.391 39.1131 65.824 38.8091C64.93 38.6371 64.27 39.047 63.68 39.68C60.797 42.793 57.895 45.8831 55.016 49.0001C53.578 50.5591 51.824 51.32 49.707 51.293C48.25 51.273 46.789 51.2891 45.328 51.2891C42.941 51.2891 40.551 51.3051 38.164 51.2811C36.699 51.2661 35.742 50.0121 36.102 48.6451C36.348 47.6991 37.172 47.117 38.316 47.117C41.703 47.113 45.086 47.1091 48.469 47.1211C49.148 47.1211 49.77 46.98 50.242 46.473C50.824 45.848 51 45.1091 50.695 44.2891C50.391 43.4691 49.648 42.9531 48.691 42.9451C45.703 42.9341 42.707 42.812 39.723 42.98C36.852 43.141 34.43 42.367 32.379 40.379C32.332 40.328 32.273 40.2891 32.219 40.2461C28.371 37.1561 22.957 37.1411 19.125 40.2501C17.809 41.3121 16.582 42.4841 15.285 43.5701C14.91 43.8831 14.871 44.109 15.086 44.543C17.523 49.383 19.945 54.2269 22.348 59.0779C22.566 59.5269 22.832 59.6451 23.305 59.6451C27.613 59.6291 31.926 59.637 36.238 59.637ZM0.487976 44.473C0.870976 43.656 1.52697 43.1721 2.33197 42.8011C3.55097 42.2381 4.74599 41.6251 5.93799 41.0081C7.80099 40.0511 9.69497 39.8912 11.621 40.7662C11.988 40.9342 12.168 40.7701 12.406 40.5701C14.195 39.0621 15.824 37.3631 17.789 36.0701C22.832 32.7461 29.863 33.0551 34.586 36.8011C37.066 38.7701 37.066 38.7701 40.227 38.7701C42.895 38.7701 45.559 38.7812 48.227 38.7662C51.281 38.7502 53.465 40.0511 54.637 42.9261C54.652 42.9651 54.703 42.9881 54.852 43.1331C54.996 42.9531 55.133 42.754 55.297 42.574C57.094 40.637 58.883 38.688 60.703 36.773C62.977 34.383 66.234 33.918 68.773 35.586C71.879 37.625 72.707 41.4061 70.48 44.5001C67.082 49.2151 63.594 53.875 59.992 58.441C57.086 62.129 53.094 63.7891 48.43 63.8011C40.594 63.8241 32.758 63.8122 24.922 63.7972C24.359 63.7972 24.105 63.859 24.047 64.543C23.848 66.961 22.551 68.6641 20.402 69.7501C18.82 70.5471 17.234 71.3521 15.652 72.1561H14.539C13.723 71.7731 13.262 71.1021 12.871 70.3121C10.453 65.4221 8.00401 60.547 5.56201 55.668C3.87501 52.305 2.17998 48.945 0.487976 45.586V44.473Z" fill="black"/>
<path d="M20.446 63.8601C20.423 63.5041 20.333 63.168 20.177 62.856C17.282 57.063 14.391 51.266 11.481 45.481C10.864 44.254 9.747 43.9031 8.5 44.4961C7.789 44.8361 7.10602 45.231 6.38702 45.543C5.94602 45.739 5.94199 45.946 6.14099 46.332C6.85199 47.707 7.53499 49.0981 8.22699 50.4851C10.899 55.8241 13.571 61.1559 16.223 66.5039C16.462 66.9769 16.661 67.1099 17.145 66.8279C17.849 66.4219 18.595 66.098 19.31 65.719C20.048 65.324 20.396 64.6761 20.446 63.8601ZM36.752 59.481C40.76 59.481 44.772 59.4611 48.78 59.4851C52.6 59.5001 55.632 57.9889 57.909 54.9219C60.023 52.0739 62.159 49.2459 64.284 46.4099C65.386 44.9459 66.503 43.496 67.574 42.012C68.546 40.668 67.906 38.9571 66.339 38.6531C65.445 38.4811 64.784 38.8909 64.195 39.5239C61.312 42.6369 58.409 45.727 55.53 48.844C54.093 50.403 52.339 51.164 50.221 51.137C48.764 51.117 47.303 51.1331 45.842 51.1331C43.455 51.1331 41.065 51.149 38.678 51.125C37.213 51.11 36.256 49.856 36.615 48.489C36.861 47.543 37.685 46.9609 38.83 46.9609C42.217 46.9569 45.6 46.9531 48.983 46.9651C49.663 46.9651 50.284 46.8239 50.756 46.3169C51.338 45.6919 51.514 44.9531 51.21 44.1331C50.905 43.3131 50.163 42.7971 49.206 42.7891C46.217 42.7781 43.221 42.656 40.236 42.824C37.365 42.985 34.943 42.2109 32.892 40.2229C32.845 40.1719 32.787 40.1331 32.732 40.0901C28.884 37.0001 23.47 36.985 19.638 40.094C18.321 41.156 17.095 42.3281 15.798 43.4141C15.423 43.7271 15.384 43.953 15.598 44.387C18.036 49.227 20.458 54.0709 22.86 58.9219C23.079 59.3709 23.345 59.489 23.818 59.489C28.126 59.473 32.439 59.481 36.752 59.481ZM1 44.3169C1.383 43.4999 2.03899 43.016 2.84399 42.645C4.06299 42.082 5.25804 41.4691 6.44904 40.8521C8.31304 39.8951 10.207 39.7351 12.133 40.6101C12.501 40.7781 12.68 40.6141 12.919 40.4141C14.708 38.9061 16.337 37.2071 18.302 35.9141C23.345 32.5901 30.376 32.899 35.099 36.645C37.58 38.614 37.58 38.614 40.74 38.614C43.408 38.614 46.073 38.6251 48.741 38.6101C51.796 38.5941 53.979 39.895 55.151 42.77C55.167 42.809 55.218 42.8321 55.366 42.9771C55.511 42.7971 55.647 42.598 55.811 42.418C57.608 40.481 59.397 38.5319 61.218 36.6169C63.491 34.2269 66.749 33.7619 69.289 35.4299C72.394 37.4689 73.222 41.25 70.996 44.344C67.597 49.059 64.109 53.7189 60.507 58.2849C57.601 61.9729 53.608 63.633 48.944 63.645C41.107 63.668 33.271 63.6561 25.435 63.6411C24.872 63.6411 24.618 63.703 24.56 64.387C24.361 66.805 23.064 68.508 20.915 69.594C19.333 70.391 17.747 71.196 16.165 72H15.051C14.235 71.617 13.774 70.946 13.383 70.156C10.965 65.266 8.51604 60.391 6.07404 55.512C4.38704 52.149 2.691 48.7889 1 45.4299V44.3169Z" stroke="white" stroke-width="0.99205" stroke-miterlimit="10"/>
<path d="M38.297 13.586C40.562 13.605 42.465 11.7299 42.492 9.4529C42.523 7.1449 40.578 5.1129 38.328 5.1089C36.059 5.1049 34.016 7.15204 34.02 9.42604C34.023 11.645 35.996 13.562 38.297 13.586ZM38.258 26.25H45.414C46.746 26.25 46.746 26.2501 46.547 24.9141C45.926 20.6991 42.23 17.625 37.969 17.773C33.82 17.918 30.16 21.461 29.852 25.605C29.812 26.129 29.945 26.266 30.473 26.262C33.066 26.234 35.664 26.25 38.258 26.25ZM32.184 15.1641C31.199 14.0701 30.449 12.844 30.094 11.387C29.004 6.94898 31.781 2.36305 36.273 1.20705C40.656 0.0740464 45.195 2.73808 46.359 7.16408C47.09 9.94908 46.547 12.492 44.723 14.73C44.418 15.109 44.457 15.2541 44.84 15.4961C48.055 17.5271 49.977 20.4451 50.652 24.1721C50.914 25.6131 50.902 27.0821 50.816 28.5391C50.754 29.6371 49.852 30.3981 48.688 30.4141C47.414 30.4381 46.137 30.4221 44.863 30.4221C39.301 30.4221 33.734 30.4221 28.172 30.4221C26.449 30.4181 25.68 29.641 25.664 27.918C25.645 25.918 25.715 23.938 26.426 22.031C27.43 19.336 29.121 17.199 31.539 15.637C31.715 15.523 31.887 15.4061 32.059 15.2891C32.094 15.2621 32.125 15.2271 32.184 15.1641Z" fill="black"/>
<path d="M38.2973 13.5859C40.5633 13.6049 42.4663 11.7298 42.4933 9.45282C42.5243 7.14482 40.5793 5.11282 38.3293 5.10882C36.0593 5.10482 34.0163 7.15196 34.0203 9.42596C34.0243 11.645 35.9973 13.5619 38.2973 13.5859ZM38.2583 26.2499H45.4153C46.7473 26.2499 46.7473 26.25 46.5483 24.914C45.9273 20.699 42.2313 17.6249 37.9693 17.7729C33.8213 17.9179 30.1602 21.4609 29.8522 25.6049C29.8132 26.1289 29.9463 26.2659 30.4733 26.2619C33.0673 26.2339 35.6653 26.2499 38.2583 26.2499ZM32.1843 15.164C31.1993 14.07 30.4493 12.8439 30.0943 11.3869C29.0043 6.9489 31.7823 2.36297 36.2743 1.20697C40.6573 0.0739683 45.1963 2.738 46.3603 7.164C47.0913 9.949 46.5483 12.4919 44.7243 14.7299C44.4193 15.1089 44.4583 15.254 44.8413 15.496C48.0563 17.527 49.9782 20.4451 50.6542 24.1721C50.9152 25.6131 50.9043 27.082 50.8183 28.539C50.7553 29.637 49.8533 30.398 48.6893 30.414C47.4153 30.438 46.1383 30.4221 44.8643 30.4221C39.3013 30.4221 33.7353 30.4221 28.1723 30.4221C26.4493 30.4181 25.6803 29.6409 25.6643 27.9179C25.6453 25.9179 25.7153 23.9379 26.4263 22.0309C27.4303 19.3359 29.1213 17.1989 31.5393 15.6369C31.7153 15.5229 31.8873 15.406 32.0593 15.289C32.0943 15.262 32.1253 15.227 32.1843 15.164Z" stroke="white" stroke-width="0.99205" stroke-miterlimit="10"/>
</svg>
