<svg width="142" height="31" viewBox="0 0 142 31" fill="none" xmlns="http://www.w3.org/2000/svg">
<path d="M21.047 3.145C21.047 3.145 14.105 20.605 14.008 21.652L6.625 3.145H0.804993L10.195 26.754H17.477L26.836 3.145H21.047Z" fill="#1D1D1B"/>
<path d="M53.938 8.184V3.145H31.457V26.754H53.938V21.734H36.898V17.434H49.566V12.414H36.898V8.172H53.938V8.184Z" fill="#1D1D1B"/>
<path d="M105.656 3.145V17.855L92.867 3.145H88.156V26.754H93.609V12.023L106.336 26.754H111.066V3.145H105.656Z" fill="#1D1D1B"/>
<path d="M125.578 15.953L128.559 8.441L131.699 15.953H125.578ZM132.328 3.145H125.027L115.656 26.754H121.449L123.707 20.945H133.559L135.828 26.754H141.688L132.328 3.145Z" fill="#1D1D1B"/>
<path d="M71.867 6.352C71.195 8.125 71.418 10.012 72.496 11.652C73.559 13.273 75.336 14.492 77.508 15.074L77.926 15.215C80.289 15.793 82.277 17.125 83.496 18.953C84.707 20.812 84.969 22.953 84.207 24.965C82.945 28.246 79.289 30.434 75.117 30.434C74.969 30.434 12.578 30.414 11.258 30.414H11.234L10.734 29.094H61.707C65.355 29.094 68.508 27.254 69.547 24.504C70.156 22.895 69.957 21.184 68.977 19.672C67.957 18.145 66.246 17.004 64.156 16.484L63.738 16.355C61.289 15.684 59.238 14.273 57.977 12.383C56.656 10.375 56.398 8.062 57.227 5.875C58.547 2.414 62.586 -0.00800323 67.039 -0.00800323L131.129 0.012001H131.148L131.637 1.332H131.629L80.457 1.312C76.539 1.312 73.008 3.383 71.867 6.352Z" fill="#E20E18"/>
</svg>
