<svg width="191" height="42" viewBox="0 0 191 42" fill="none" xmlns="http://www.w3.org/2000/svg">
<path d="M27.438 4.45312C27.438 4.45312 18.059 28.0591 17.922 29.4771L7.94501 4.45312H0.0780029L12.77 36.3711H22.613L35.266 4.45312H27.438Z" fill="white"/>
<path d="M71.898 11.2661V4.45312H41.512V36.3711H71.898V29.5859H48.863V23.7729H65.992V16.9839H48.863V11.2539H71.898V11.2661Z" fill="white"/>
<path d="M141.812 4.45312V24.3398L124.523 4.45312H118.156V36.3711H125.523V16.457L142.73 36.3711H149.125V4.45312H141.812Z" fill="white"/>
<path d="M168.742 21.77L172.77 11.6172L177.016 21.77H168.742ZM177.867 4.45312H168L155.332 36.3711H163.156L166.215 28.5161H179.527L182.598 36.3711H190.52L177.867 4.45312Z" fill="white"/>
<path d="M96.137 8.79297C95.23 11.188 95.527 13.742 96.988 15.957C98.422 18.148 100.828 19.797 103.762 20.582L104.328 20.77C107.52 21.555 110.207 23.3521 111.855 25.8281C113.492 28.3401 113.844 31.2341 112.816 33.9531C111.113 38.3871 106.168 41.3481 100.527 41.3481C100.328 41.3481 15.988 41.3198 14.203 41.3198H14.176L13.5 39.5352H82.402C87.336 39.5352 91.594 37.0471 93 33.3281C93.824 31.1521 93.555 28.8398 92.23 26.8008C90.852 24.7298 88.539 23.1908 85.715 22.4878L85.145 22.312C81.836 21.406 79.062 19.4998 77.359 16.9448C75.574 14.2268 75.223 11.105 76.348 8.14502C78.129 3.46902 83.59 0.194824 89.605 0.194824L176.242 0.223145H176.27L176.934 2.00781H176.918L107.75 1.97998C102.449 1.97998 97.676 4.77697 96.137 8.79297Z" fill="#E20E18"/>
</svg>
